<?xml version="1.0" standalone="no"?>
<!DOCTYPE svg PUBLIC "-//W3C//DTD SVG 20010904//EN"
 "http://www.w3.org/TR/2001/REC-SVG-20010904/DTD/svg10.dtd">
<svg version="1.0" xmlns="http://www.w3.org/2000/svg"
 width="690.000000pt" height="690.000000pt" viewBox="0 0 690.000000 690.000000"
 preserveAspectRatio="xMidYMid meet">

<g transform="translate(0.000000,690.000000) scale(0.100000,-0.100000)"
fill="#000000" stroke="none">
<path d="M1505 4125 c-63 -17 -99 -56 -114 -124 -7 -34 -11 -224 -11 -550 0
-428 2 -505 16 -552 19 -63 63 -109 121 -127 56 -17 3793 -17 3859 -1 63 16
108 62 128 128 14 47 16 123 16 542 0 325 -4 506 -11 541 -16 74 -73 131 -147
147 -84 18 -3790 14 -3857 -4z m523 -413 c141 -82 299 -172 349 -201 51 -29
95 -57 99 -62 9 -16 -11 -34 -98 -84 l-81 -47 -58 58 -59 59 -208 -208 c-114
-114 -213 -207 -220 -207 -9 0 -12 91 -12 413 0 228 3 417 7 420 3 4 10 7 15
7 5 0 124 -67 266 -148z m1484 79 c28 -25 33 -36 33 -76 0 -40 -5 -51 -33 -76
-19 -17 -44 -29 -60 -29 -42 0 -92 35 -98 70 -12 60 -1 96 38 120 46 28 82 25
120 -9z m1108 14 c37 -19 50 -43 50 -90 0 -47 -13 -71 -50 -90 -46 -24 -78
-19 -116 19 -26 26 -34 42 -34 71 0 29 8 45 34 71 38 38 70 43 116 19z m-1892
-84 c17 -48 32 -91 32 -95 0 -16 -38 -4 -43 14 -4 16 -14 20 -45 20 -32 0 -42
-4 -47 -20 -5 -17 -45 -30 -45 -15 0 4 36 100 61 163 5 14 17 22 31 22 20 0
28 -13 56 -89z m144 26 l38 -62 0 63 c0 55 2 62 20 62 19 0 20 -7 20 -95 0
-92 -1 -95 -22 -95 -18 0 -33 17 -63 68 l-40 67 -3 -67 c-2 -52 -6 -68 -17
-68 -12 0 -15 19 -15 95 0 92 1 95 23 95 16 0 31 -16 59 -63z m252 38 c21 -19
26 -33 26 -70 0 -67 -31 -95 -105 -95 l-55 0 0 95 0 95 54 0 c43 0 58 -5 80
-25z m178 8 c23 -21 23 -58 -1 -82 -19 -19 -19 -20 5 -55 l25 -36 -23 0 c-15
0 -31 12 -46 35 -28 44 -42 44 -42 0 0 -28 -4 -35 -20 -35 -19 0 -20 7 -20 95
l0 95 52 0 c34 0 58 -6 70 -17z m318 -78 c0 -88 -1 -95 -20 -95 -19 0 -20 7
-20 95 0 88 1 95 20 95 19 0 20 -7 20 -95z m161 82 c23 -17 39 -52 39 -82 0
-62 -36 -94 -107 -95 l-53 0 0 95 0 95 53 0 c28 0 59 -6 68 -13z m257 -76 c18
-48 32 -91 32 -95 0 -16 -38 -4 -43 14 -4 16 -14 20 -45 20 -31 0 -41 -4 -45
-20 -3 -12 -14 -20 -26 -20 -12 0 -21 2 -21 5 0 2 13 37 28 77 16 40 32 81 35
91 4 9 17 17 30 17 20 0 27 -12 55 -89z m176 73 c39 -38 10 -104 -46 -104 -25
0 -28 -3 -28 -35 0 -28 -4 -35 -20 -35 -19 0 -20 7 -20 95 l0 95 49 0 c32 0
55 -6 65 -16z m166 -4 c11 -11 20 -29 20 -40 0 -29 -36 -60 -70 -60 -28 0 -30
-3 -30 -35 0 -28 -4 -35 -20 -35 -19 0 -20 7 -20 95 l0 95 50 0 c37 0 55 -5
70 -20z m406 -42 l39 -63 3 63 c2 46 7 62 17 62 12 0 15 -19 15 -95 0 -87 -2
-95 -19 -95 -14 0 -33 21 -60 68 l-41 67 0 -67 c0 -61 -2 -68 -20 -68 -19 0
-20 7 -20 95 0 93 0 95 24 95 18 0 32 -15 62 -62z m-1933 -252 c18 -8 41 -21
52 -29 19 -15 19 -16 2 -35 -17 -19 -18 -19 -55 -1 -95 49 -200 -6 -210 -111
-11 -119 84 -197 193 -156 43 17 75 51 75 80 0 11 -15 16 -62 18 -60 3 -63 4
-66 31 l-3 27 102 0 102 0 -6 -49 c-8 -65 -28 -103 -73 -138 -30 -22 -49 -28
-104 -31 -71 -4 -111 9 -158 52 -58 52 -80 160 -47 230 46 96 170 150 258 112z
m1075 -198 l-3 -193 -27 -3 -28 -3 0 195 0 196 30 0 30 0 -2 -192z m633 154
c47 -53 35 -145 -24 -182 -12 -7 -49 -15 -84 -18 l-62 -5 -3 -71 c-3 -69 -4
-71 -30 -74 l-28 -3 0 196 0 197 101 -4 c99 -3 101 -3 130 -36z m119 -158 l0
-195 -27 3 -28 3 -3 193 -2 192 30 0 30 0 0 -196z m-1479 43 c42 -28 59 -60
59 -112 0 -51 -28 -97 -73 -118 -41 -20 -65 -21 -104 -6 -91 34 -117 146 -51
217 45 48 115 56 169 19z m280 8 c65 -34 88 -126 49 -190 -51 -83 -172 -82
-227 1 -21 32 -21 100 0 140 29 57 116 81 178 49z m312 6 l37 0 0 -137 c0
-106 -4 -144 -17 -171 -18 -38 -62 -63 -110 -63 -34 0 -88 31 -102 59 -9 17
-7 22 11 32 17 9 23 9 26 0 2 -6 17 -18 32 -26 22 -11 35 -12 57 -4 32 12 43
26 43 57 0 19 -3 21 -19 12 -11 -5 -36 -10 -57 -10 -29 0 -44 8 -75 39 -35 35
-39 44 -39 91 0 48 4 56 40 92 38 38 42 40 87 34 27 -3 65 -5 86 -5z m342 -3
c29 -13 72 -76 59 -87 -5 -4 -44 -22 -86 -41 -43 -18 -78 -36 -78 -39 0 -32
81 -42 112 -15 14 14 20 14 33 4 21 -18 18 -32 -11 -54 -92 -66 -211 9 -201
127 8 90 92 142 172 105z m781 -22 c34 -34 34 -34 34 -130 0 -96 0 -96 -25
-96 -16 0 -25 6 -25 15 0 19 -9 19 -34 0 -33 -25 -84 -19 -117 14 -36 36 -37
70 -5 108 22 25 31 28 85 28 64 0 71 4 45 29 -18 19 -65 21 -81 5 -15 -15 -63
-3 -63 16 0 22 50 44 104 45 42 0 52 -4 82 -34z m128 -51 c16 -42 32 -77 36
-80 3 -2 19 32 35 76 28 76 30 79 61 79 l32 0 -76 -180 c-74 -171 -78 -179
-105 -180 -25 0 -27 3 -21 23 3 12 15 39 26 60 22 44 25 31 -46 195 l-35 82
32 0 c31 0 33 -4 61 -75z"/>
<path d="M3396 3758 c-34 -49 -7 -108 49 -108 24 0 39 7 49 22 34 49 7 108
-49 108 -24 0 -39 -7 -49 -22z"/>
<path d="M4527 3762 c-38 -41 -10 -112 44 -112 30 0 43 9 58 38 33 62 -56 126
-102 74z"/>
<path d="M2661 3737 c-14 -37 -14 -37 9 -37 21 0 24 12 10 45 -7 19 -9 18 -19
-8z"/>
<path d="M3024 3766 c-3 -7 -4 -35 -2 -62 3 -45 5 -49 30 -52 31 -4 68 31 68
63 0 46 -81 90 -96 51z"/>
<path d="M3220 3756 c0 -22 4 -26 31 -26 26 0 30 3 27 23 -2 16 -11 23 -30 25
-24 3 -28 0 -28 -22z"/>
<path d="M3690 3715 c0 -65 0 -65 28 -65 37 0 62 28 62 68 0 35 -30 62 -67 62
-22 0 -23 -4 -23 -65z"/>
<path d="M3971 3737 c-14 -37 -14 -37 9 -37 21 0 24 12 10 45 -7 19 -9 18 -19
-8z"/>
<path d="M4140 3750 c0 -32 9 -36 41 -20 23 13 25 36 3 44 -33 13 -44 6 -44
-24z"/>
<path d="M4300 3755 c0 -31 26 -43 47 -22 21 21 9 47 -22 47 -20 0 -25 -5 -25
-25z"/>
<path d="M4390 3375 l0 -65 54 0 c47 0 57 4 75 26 12 15 21 32 21 39 0 7 -9
24 -21 39 -18 22 -28 26 -75 26 l-54 0 0 -65z"/>
<path d="M3092 3303 c-22 -9 -44 -63 -37 -94 20 -90 145 -70 145 23 0 55 -56
92 -108 71z"/>
<path d="M3369 3291 c-18 -14 -24 -29 -24 -61 0 -32 6 -47 24 -61 75 -61 165
48 96 116 -29 30 -64 32 -96 6z"/>
<path d="M3659 3291 c-18 -14 -24 -29 -24 -61 0 -32 6 -47 24 -61 52 -42 116
-9 116 61 0 47 -29 80 -70 80 -13 0 -33 -9 -46 -19z"/>
<path d="M4040 3290 c-11 -11 -20 -27 -20 -36 0 -17 12 -15 77 13 29 11 33 16
23 28 -18 21 -57 18 -80 -5z"/>
<path d="M4781 3202 c-26 -48 47 -72 88 -28 30 32 20 46 -34 46 -32 0 -47 -5
-54 -18z"/>
</g>
</svg>
